{"title":"Tom &amp; Jerry - Tricks &amp; Treats (2012) DVDRip XviD AC3 pea","uid":9194491,"size":2324357386,"categoryP":"video","categoryS":"tv_shows","magnet":"?xt=urn:btih:dc9c04486cd84e4dd04a0f6a3557b4fca7c2beb3&amp;dn=Tom+%26amp%3B+Jerry+-+Tricks+%26amp%3B+Treats+%282012%29+DVDRip+XviD+AC3+pea&amp;tr=udp%3A%2F%2Ftracker.openbittorrent.com%3A80&amp;tr=udp%3A%2F%2Fopen.demonii.com%3A1337&amp;tr=udp%3A%2F%2Ftracker.coppersurfer.tk%3A6969&amp;tr=udp%3A%2F%2Fexodus.desync.com%3A6969","seeders":1,"leechers":0,"uploader":"peaSoup","files":-1,"time":1384457014,"description":"Tom and Jerry are in for spooks galore in this monster collection. With 20 eerie episodes plus two bonus episodes, your goodie-bag will be overflowing with fun! Tricks and treats are at every turn, from ancient Egypt to Transylvania, from creepy houses to haunted forests, the hair-raising hilarity is non-stop! Our favorite cat and mouse mingle with ghosts, mummies, werewolves and witches in these terrific tales. Of course Tom and Jerry have a bounty of tricks up their own sleeves as well! Fear not, the chase is on! It's a scare-iffic good time for the whole family!       &lt;a href=&quot; http://imageshack.com/a/img18/1328/09hb.jpg&quot; rel=&quot;nofollow&quot; target=&quot;_NEW&quot;&gt; http://imageshack.com/a/img18/1328/09hb.jpg&lt;/a&gt;                                         &lt;a href=&quot; http://imageshack.com/a/img194/3525/njqc.jpg&quot; rel=&quot;nofollow&quot; target=&quot;_NEW&quot;&gt; http://imageshack.com/a/img194/3525/njqc.jpg&lt;/a&gt;                                        &lt;a href=&quot; http://imageshack.com/a/img547/8842/q54p.jpg&quot; rel=&quot;nofollow&quot; target=&quot;_NEW&quot;&gt; http://imageshack.com/a/img547/8842/q54p.jpg&lt;/a&gt;                                        &lt;a href=&quot; http://imageshack.com/a/img706/5600/yb3s.jpg&quot; rel=&quot;nofollow&quot; target=&quot;_NEW&quot;&gt; http://imageshack.com/a/img706/5600/yb3s.jpg&lt;/a&gt;                                        &lt;a href=&quot; http://imageshack.com/a/img33/141/fvqy.jpg&quot; rel=&quot;nofollow&quot; target=&quot;_NEW&quot;&gt; http://imageshack.com/a/img33/141/fvqy.jpg&lt;/a&gt;                                           Format                                   : AVI\nFormat/Info                              : Audio Video Interleave\nFormat profile                           : OpenDML\nFile size                                : 2.16 GiB\nDuration                                 : 3h 10mn\nOverall bit rate                         : 1 630 Kbps Video\nID                                       : 0\nFormat                                   : MPEG-4 Visual\nFormat profile                           : Advanced Simple@L5\nFormat settings, BVOP                    : 2\nFormat settings, QPel                    : No\nFormat settings, GMC                     : No warppoints\nFormat settings, Matrix                  : Default (H.263)\nCodec ID                                 : XVID\nCodec ID/Hint                            : XviD\nDuration                                 : 3h 10mn\nBit rate                                 : 1 433 Kbps\nWidth                                    : 720 pixels\nHeight                                   : 540 pixels\nDisplay aspect ratio                     : 4:3\nFrame rate                               : 25.000 fps\nColor space                              : YUV\nChroma subsampling                       : 4:2:0\nBit depth                                : 8 bits\nScan type                                : Progressive\nCompression mode                         : Lossy\nBits/(Pixel*Frame)                       : 0.147\nStream size                              : 1.90 GiB (88%)\nWriting library                          : XviD 63\n\nAudio\nID                                       : 1\nFormat                                   : AC-3\nFormat/Info                              : Audio Coding 3\nFormat profile                           : Dolby Digital\nMode extension                           : CM (complete main)\nFormat settings, Endianness              : Big\nCodec ID                                 : 2000\nDuration                                 : 3h 10mn\nBit rate mode                            : Constant\nBit rate                                 : 192 Kbps\nChannel(s)                               : 2 channels\nChannel positions                        : Front: L R\nSampling rate                            : 48.0 KHz\nBit depth                                : 16 bits\nCompression mode                         : Lossy\nDelay relative to video                  : 40ms\nStream size                              : 261 MiB (12%)\nAlignment                                : Split accross interleaves\nInterleave, duration                     : 500 ms (12.50 video frames)\nInterleave, preload duration             : 500 ms\n\n","torrent":{"xt":"urn:btih:dc9c04486cd84e4dd04a0f6a3557b4fca7c2beb3","amp;dn":"Tom+%26amp%3B+Jerry+-+Tricks+%26amp%3B+Treats+%282012%29+DVDRip+XviD+AC3+pea","amp;tr":["udp%3A%2F%2Ftracker.openbittorrent.com%3A80","udp%3A%2F%2Fopen.demonii.com%3A1337","udp%3A%2F%2Ftracker.coppersurfer.tk%3A6969","udp%3A%2F%2Fexodus.desync.com%3A6969"],"infoHash":"dc9c04486cd84e4dd04a0f6a3557b4fca7c2beb3","infoHashBuffer":{"type":"Buffer","data":[220,156,4,72,108,216,78,77,208,74,15,106,53,87,180,252,167,194,190,179]},"announce":[],"urlList":[]}}